<svg width="12" height="13" viewBox="0 0 12 13" fill="none" xmlns="http://www.w3.org/2000/svg">
<path d="M5.4 4.55H6.6V3.25H5.4M6 11.7C3.354 11.7 1.2 9.3665 1.2 6.5C1.2 3.6335 3.354 1.3 6 1.3C8.646 1.3 10.8 3.6335 10.8 6.5C10.8 9.3665 8.646 11.7 6 11.7ZM6 0C5.21207 0 4.43185 0.168127 3.7039 0.494783C2.97595 0.821439 2.31451 1.30023 1.75736 1.90381C0.632141 3.12279 0 4.77609 0 6.5C0 8.22391 0.632141 9.87721 1.75736 11.0962C2.31451 11.6998 2.97595 12.1786 3.7039 12.5052C4.43185 12.8319 5.21207 13 6 13C7.5913 13 9.11742 12.3152 10.2426 11.0962C11.3679 9.87721 12 8.22391 12 6.5C12 5.64641 11.8448 4.80117 11.5433 4.01256C11.2417 3.22394 10.7998 2.50739 10.2426 1.90381C9.68549 1.30023 9.02405 0.821439 8.2961 0.494783C7.56815 0.168127 6.78793 0 6 0ZM5.4 9.75H6.6V5.85H5.4V9.75Z" fill="white"/>
</svg>
